<?xml version="1.0" encoding="utf-8"?>
<!-- Generator: Adobe Illustrator 16.0.0, SVG Export Plug-In . SVG Version: 6.00 Build 0)  -->
<!DOCTYPE svg PUBLIC "-//W3C//DTD SVG 1.1//EN" "http://www.w3.org/Graphics/SVG/1.1/DTD/svg11.dtd">
<svg version="1.1" id="Layer_1" xmlns="http://www.w3.org/2000/svg" xmlns:xlink="http://www.w3.org/1999/xlink" x="0px" y="0px"
	   viewBox="0 0 335 73" enable-background="new 0 0 335 73" xml:space="preserve">
<g>
	
		<linearGradient id="SVGID_1_" gradientUnits="userSpaceOnUse" x1="-579.3989" y1="171.4336" x2="-577.5454" y2="171.4336" gradientTransform="matrix(180 0 0 38 104292.5 -6477.9688)">
		<stop  offset="0" style="stop-color:#EE2224"/>
		<stop  offset="1" style="stop-color:#F16521"/>
	</linearGradient>
	<path fill="url(#SVGID_1_)" d="M258.021,1.277c-0.16,0-0.326,0-0.482,0.006c-3.449,0.138-5.803,1.038-7.191,2.752
		c-2.037,2.509-1.998,6.75-1.961,11.241c0.006,0.64,0.01,1.282,0.01,1.936v0.479h-3.504v7.595h3.504v31.426h8.959V25.287h2.762
		c3.914,0,6.791-3.168,6.984-7.599h-9.746v-5.097c0-2.401,1.553-3.951,3.945-3.951c1.898,0,4.189,1.048,5.266,3.063
		c1.564-1.999,1.977-3.99,1.186-5.791C266.531,3.137,262.619,1.277,258.021,1.277L258.021,1.277z M287.494,16.683
		c-3.029,0.146-5.717,2.237-7.373,5.74l-0.898,1.901v-6.716h-7.59v39.103h8.961V41.012c0-2.033,0-4.562,0.152-7.04
		c0.5-5.736,4.842-8.823,8.668-8.823c2.07,0,3.719,0.907,4.549,2.459c1.475-1.443,1.965-3.834,1.209-6.151
		c-0.98-3.001-3.607-4.794-7.021-4.794C287.938,16.664,287.719,16.668,287.494,16.683L287.494,16.683z M232.264,16.683
		c-3.033,0.146-5.717,2.237-7.375,5.74l-0.898,1.901v-6.716h-7.59v39.103h8.961V41.012c0-2.033,0-4.562,0.152-7.04
		c0.5-5.736,4.844-8.823,8.672-8.823c2.064,0,3.719,0.907,4.545,2.459c1.479-1.443,1.971-3.834,1.211-6.151
		c-0.982-3.001-3.607-4.794-7.023-4.794C232.701,16.664,232.484,16.668,232.264,16.683L232.264,16.683z M176.439,45.973
		c3.117,7.363,9.719,11.58,18.115,11.58c7.371,0,12.615-2.58,16.441-8.115l-7.203-3.539c-2.502,2.459-5.877,3.861-9.328,3.861
		c-0.738,0-1.479-0.066-2.205-0.195c-5.299-0.904-9.168-6.475-9-12.957c0.15-6.862,5.123-12.296,11.57-12.634
		c0.207-0.011,0.408-0.021,0.605-0.021c4.906,0,8.465,3.313,8.592,6.287c0.104,2.47-2.055,4.139-5.777,4.469
		c-1.139,0.11-2.502,0.231-3.881,0.231c-3.166,0-5.609-0.656-7.447-2.008c-0.699,2.125-0.523,4.056,0.51,5.61
		c1.51,2.258,4.723,3.559,8.816,3.559c1.854,0,3.834-0.266,5.883-0.783c7.904-1.973,10.078-7.936,9.537-12.438
		c-0.707-5.875-6.102-12.198-16.279-12.198c-6.232,0-11.6,2.111-15.119,5.938c-5.578,5.908-7.152,15.511-3.832,23.354v-0.002
		H176.439z M50.386,22.622c-5.579,5.909-7.149,15.511-3.828,23.356c3.116,7.359,9.717,11.574,18.108,11.574
		c7.377,0,12.616-2.576,16.441-8.113l-7.201-3.537c-2.498,2.459-5.878,3.861-9.324,3.861c-0.744,0-1.484-0.066-2.206-0.197
		c-5.3-0.906-9.17-6.475-9-12.958c0.151-6.862,5.125-12.295,11.572-12.633c0.202-0.012,0.405-0.021,0.604-0.021
		c4.903,0,8.463,3.313,8.589,6.286c0.104,2.47-2.056,4.139-5.778,4.469c-1.14,0.112-2.498,0.232-3.88,0.232
		c-3.164,0-5.608-0.657-7.446-2.009c-0.699,2.126-0.524,4.055,0.509,5.609c1.512,2.26,4.724,3.561,8.817,3.561
		c1.851,0,3.831-0.268,5.884-0.783c7.901-1.975,10.076-7.937,9.538-12.439c-0.709-5.875-6.102-12.198-16.284-12.198
		C59.276,16.683,53.906,18.794,50.386,22.622L50.386,22.622z M140.3,22.015l-0.8,0.808v-4.996l-0.259-0.006
		c-4.156,0-8.628,2.365-8.628,7.556v46.347h8.887v-31.02c0-4.729,1.045-15.726,10.754-15.726c7.607,0,11.073,6.261,11.073,12.077
		c0,6.07-3.806,12.217-11.073,12.217c-1.739,0-5.808-0.289-8.102-2.799c-0.564,1.697-0.491,4.32,0.77,6.537
		c1.098,1.93,3.49,4.275,8.643,4.469c0.161,0.006,0.327,0.01,0.488,0.01c4.6,0,9.184-2.076,12.581-5.699
		c3.591-3.826,5.567-8.994,5.567-14.549c0-13.267-9.188-20.425-17.831-20.425c-4.44,0-8.728,1.849-12.066,5.201H140.3V22.015z
		 M96.206,22.015L95.4,22.822v-4.996l-0.254-0.006c-4.155,0-8.631,2.365-8.631,7.556v46.347H95.4v-31.02
		c0-4.729,1.048-15.726,10.759-15.726c7.606,0,11.071,6.261,11.071,12.077c0,6.07-3.803,12.217-11.071,12.217
		c-1.739,0-5.813-0.289-8.102-2.799c-0.565,1.697-0.491,4.316,0.768,6.533c1.098,1.934,3.49,4.279,8.646,4.475
		c0.159,0.004,0.323,0.008,0.485,0.008c4.597,0,9.183-2.076,12.581-5.699c3.593-3.826,5.568-8.994,5.568-14.549
		c0-13.267-9.188-20.425-17.832-20.425C103.834,16.814,99.548,18.662,96.206,22.015z M10.34,22.015l-0.803,0.808v-4.996L9.278,17.82
		c-4.154,0-8.628,2.365-8.628,7.558v46.345h8.887v-31.02c0-4.729,1.045-15.726,10.757-15.726c7.606,0,11.068,6.261,11.068,12.077
		c0,6.07-3.802,12.217-11.068,12.217c-1.741,0-5.813-0.289-8.106-2.799c-0.56,1.697-0.488,4.32,0.771,6.537
		c1.097,1.93,3.484,4.275,8.649,4.469c0.155,0.006,0.321,0.01,0.485,0.01c4.593,0,9.18-2.076,12.58-5.699
		c3.589-3.826,5.564-8.994,5.564-14.549c0-13.267-9.188-20.425-17.829-20.425C17.966,16.814,13.683,18.662,10.34,22.015
		L10.34,22.015z M325.467,17.688c0.006,3.935,0.037,30.913,0.037,34.104c0,7.396-3.957,11.309-11.764,11.646
		c-0.168,0.006-0.334,0.01-0.502,0.01c-4.35,0-9.982-1.877-12.756-5.975c-0.824,3.65-0.342,6.717,1.451,9.137
		c2.373,3.201,7.061,5.039,12.854,5.039c12.436,0,19.563-7.041,19.563-19.314V17.688H325.467L325.467,17.688z M300.174,17.688
		v25.634c0,4.406,1.078,7.672,3.295,9.992c2.502,2.592,5.797,3.965,9.529,3.965c0.309,0,0.615-0.01,0.922-0.031
		c4.889-0.314,7.764-1.871,8.791-4.744c1.217-3.635-0.203-6.373-1.414-7.494c-0.018,0.939-0.305,1.748-0.863,2.412
		c-0.971,1.158-2.678,1.77-4.936,1.77c-2.926,0-5.098-1.924-5.967-5.281c-0.83-3.104-0.717-15.517-0.648-22.938l0.025-3.279h-8.734
		V17.688z"/>
</g>
</svg>
